<?xml version="1.0" encoding="utf-8"?>
<!-- Generator: Adobe Illustrator 21.0.2, SVG Export Plug-In . SVG Version: 6.00 Build 0)  -->
<svg version="1.1" id="Layer_2" xmlns="http://www.w3.org/2000/svg" xmlns:xlink="http://www.w3.org/1999/xlink" x="0px" y="0px"
	 viewBox="0 0 483.5 266.8" style="enable-background:new 0 0 483.5 266.8;" xml:space="preserve">
<style type="text/css">
	.st0{fill:#FFFFFF;}
</style>
<path class="st0" d="M267.1,153.7c-1.6,1.9-3.4,3.6-5.5,5.1c0,0,3.8,4.4,10.8,4.4s9.2-5.3,9.4-8.2H281c-1.2,2.9-2.2,4.1-5.1,4.1
	S270.1,157,267.1,153.7z"/>
<path class="st0" d="M301.9,143.8h-1.3c0,8.7-7.1,15.8-15.8,15.8h-2.9c0,0-0.4,0.8-0.8,1.3h20.3L301.9,143.8z"/>
<path class="st0" d="M114,92.4C101.8,88.2,96.8,79.2,96.8,72c0-9,9.2-17.5,21.2-17.5c16.3,0,26.3,7.2,41.3,17.5s26.3,18.7,38.3,18.7
	s26.9-7.7,27.2-22.8c0.3-17.3-15.5-22.2-15.5-22.2c15.7,4.7,17,17,17,22.2c0,9-7,25.2-28.7,25.2c-6.3,0-11.7-0.9-17.6-3.4
	c-12.4-5.1-23.4-13.8-23.4-13.8c-16.5-11.5-27.5-19.3-38.8-19.3s-19.5,8-19.5,15.5S103.5,86.7,114,92.4z"/>
<path class="st0" d="M38.9,103.8"/>
<path class="st0" d="M372.4,92.4c12.2-4.2,17.2-13.2,17.2-20.3c0-9-9.2-17.5-21.2-17.5C352,54.5,342,61.7,327,72
	s-26.3,18.7-38.3,18.7s-26.9-7.7-27.2-22.8C261.2,50.5,277,45.7,277,45.7c-15.7,4.7-17,17-17,22.2c0,9,7,25.2,28.7,25.2
	c6.3,0,11.7-0.9,17.6-3.4c12.4-5.1,23.4-13.8,23.4-13.8c16.5-11.5,27.5-19.3,38.8-19.3c11.3,0,19.5,8,19.5,15.5
	S382.9,86.7,372.4,92.4z"/>
<path class="st0" d="M225.8,26.7c0,0,19,20.2,8.8,26c-5,2.9-12.7-8-10.7-25c0,0-7.7-9.7-23-9.7s-32,13.7-32,29.5
	s10.7,25.7,22.3,25.7c10,0,12.5-7.7,12.5-7.7c-3,9.2-11.7,9.2-12.7,9.2c-1.2,0-24.7-0.2-24.7-27c0,0-1.2-31.5,34.6-31.5
	c11,0,19.8,6.2,23.2,9.3c0,0,2.9-15.9,18.9-25.5c16,9.6,18.9,25.5,18.9,25.5c3.3-3.2,12.1-9.3,23.2-9.3c35.8,0,34.6,31.5,34.6,31.5
	c0,26.8-23.5,27-24.7,27c-1,0-9.7,0-12.7-9.2c0,0,2.5,7.7,12.5,7.7c11.7,0,22.3-9.8,22.3-25.7S300.7,18,285.4,18
	c-15.3,0-23,9.7-23,9.7c2,17-5.7,27.9-10.7,25c-10.2-5.8,8.8-26,8.8-26C258,14.4,250.5,8,243.2,3C235.8,8,228.3,14.4,225.8,26.7z
	 M234.2,51c5.3-3.9-3.6-16.5-9.1-22.2C224,39.2,229.5,54.5,234.2,51z M261.2,28.8c-5.5,5.8-14.4,18.4-9.1,22.2
	C256.8,54.5,262.3,39.2,261.2,28.8z"/>
<path class="st0" d="M444.6,103.8"/>
<path class="st0" d="M444.6,103.8c8.2-4.1,11.4-7.1,22.1-7.1c10.1,0,16.8,2.5,16.9,9.7c0.1,7.4-7.8,10-17.4,10s-16.7-3.7-21.1-10.4
	l-0.1-0.1c-10.4,5.3-20.3,0.8-20.3,0.8c-2.1,6.5-5.2,7.9-12,7.9c-6.8,0-10,0-25.7-7.5s-23.4-6.6-23.4-6.6
	c-13.4,0-24.2,3.6-35.8,14.8C343,99.6,355,97.9,363.3,97.9s18.2,3.9,25.1,7.5s13.2,8.4,24.1,8.4c5.5,0,9-1.1,11-7.4
	c0,0-7.4-3.6-5-6.4c2.2-2.6,6.1,3.9,6,5.7c5.2,1.3,11,2.5,19.4-1.5c0,0-5.6-7.1-5.6-11.5c0-4.4,2.8-6.1,2.8-6.1s1-0.7,1.6,0.3
	c0.6,1-0.9,1.5-0.9,1.5s-2.9,1.1-2.9,4.2C439,95.6,441.9,100.3,444.6,103.8z M446,106.2c6.8,9.2,20.1,9.3,20.1,9.3
	s16.4,0.6,16.4-9.1s-15.9-8.8-15.9-8.8c-8.8,0-11.2,2.8-21.1,7.9L446,106.2z M419.5,100.7c-0.8,0.9,1.5,3.2,3.6,4.2
	C422.6,103,420.5,100,419.5,100.7z"/>
<path class="st0" d="M243.2,28c0,0,4.5,5.2,3.1,12.2c2.4-6.8,0.8-11-3.1-15.6c-3.9,4.6-5.5,8.8-3.1,15.6
	C238.7,33.1,243.2,28,243.2,28z"/>
<path class="st0" d="M44.5,92.6c0-3.1-2.9-4.2-2.9-4.2s-1.5-0.6-0.9-1.5c0.6-1,1.6-0.3,1.6-0.3s2.8,1.7,2.8,6.1
	c0,4.4-5.6,11.5-5.6,11.5c8.4,4.1,14.3,2.8,19.4,1.5c-0.1-1.8,3.9-8.3,6-5.7c2.4,2.8-5,6.4-5,6.4c2,6.2,5.5,7.4,11,7.4
	c10.9,0,17.2-4.8,24.1-8.4s16.9-7.5,25.1-7.5s20.2,1.8,35.6,17.4c-11.5-11.1-22.4-14.8-35.7-14.8c0,0-7.6-0.9-23.4,6.6
	s-19,7.5-25.7,7.5c-6.9,0-10-1.4-12-7.9c0,0-9.9,4.5-20.3-0.8l-0.1,0.1c-4.4,6.7-11.6,10.4-21.1,10.4s-17.4-2.6-17.4-10
	c0.1-7.2,6.8-9.7,16.9-9.7c10.6,0,13.9,3.1,22.1,7.1C41.6,100.3,44.5,95.6,44.5,92.6z M37.9,105.5c-9.8-5.1-12.3-7.9-21.1-7.9
	c0,0-15.9-0.9-15.9,8.8s16.4,9.1,16.4,9.1s13.4-0.2,20.1-9.3L37.9,105.5z M60.4,104.9c2.1-0.9,4.4-3.2,3.6-4.2
	C62.9,100,60.9,103,60.4,104.9z"/>
<path class="st0" d="M114,174.4c-12.2,4.2-17.2,13.2-17.2,20.3c0,9,9.2,17.5,21.2,17.5c16.3,0,26.3-7.2,41.3-17.5
	c15-10.3,26.3-18.7,38.3-18.7s26.9,7.7,27.2,22.8c0.3,17.3-15.5,22.2-15.5,22.2c15.7-4.7,17-17,17-22.2c0-9-7-25.2-28.7-25.2
	c-6.3,0-11.7,0.9-17.6,3.4c-12.4,5.1-23.4,13.8-23.4,13.8c-16.5,11.5-27.5,19.3-38.8,19.3s-19.5-8-19.5-15.5S103.5,180.1,114,174.4z
	"/>
<path class="st0" d="M372.4,174.4c12.2,4.2,17.2,13.2,17.2,20.3c0,9-9.2,17.5-21.2,17.5c-16.3,0-26.3-7.2-41.3-17.5
	c-15-10.3-26.3-18.7-38.3-18.7s-26.9,7.7-27.2,22.8c-0.3,17.3,15.5,22.2,15.5,22.2c-15.7-4.7-17-17-17-22.2c0-9,7-25.2,28.7-25.2
	c6.3,0,11.7,0.9,17.6,3.4c12.4,5.1,23.4,13.8,23.4,13.8c16.5,11.5,27.5,19.3,38.8,19.3c11.3,0,19.5-8,19.5-15.5
	S382.9,180.1,372.4,174.4z"/>
<g>
	<path class="st0" d="M166.4,177.3c0.3-0.1,0.4-0.1,0.4-0.1c0.1,0,0.1-0.1,0.1-0.1c0-0.1,0-0.1,0-0.2l0.1-0.1l0.9,1.3l-0.1,0.1
		c-0.2-0.2-0.5-0.4-0.7-0.5c-0.4-0.2-0.9-0.1-1.3,0.1c-0.4,0.3-0.7,0.6-0.7,1.1c-0.1,0.5,0.1,1,0.4,1.6c0.3,0.5,0.7,0.9,1.2,1
		c0.5,0.2,0.9,0.1,1.4-0.2c0.3-0.2,0.6-0.4,0.7-0.7c0.1-0.2,0.2-0.4,0.3-0.7l0.2,0c0,0.2-0.1,0.5-0.2,0.7c-0.2,0.4-0.5,0.7-0.9,1
		c-0.6,0.4-1.3,0.5-1.9,0.3c-0.6-0.2-1-0.5-1.4-1.1c-0.3-0.6-0.5-1.2-0.3-1.8c0.1-0.6,0.5-1.2,1.1-1.5
		C165.9,177.5,166.1,177.4,166.4,177.3z"/>
	<path class="st0" d="M169.9,180.4c0.2-0.2,0.4-0.3,0.4-0.4c0-0.1,0-0.3-0.2-0.5l-1.4-2.7c-0.1-0.2-0.2-0.3-0.3-0.4
		c-0.1,0-0.3,0-0.5,0.1l-0.1-0.1l1.7-0.9l0.1,0.1c-0.2,0.1-0.3,0.3-0.4,0.4s0,0.3,0.1,0.5l0.6,1.2l1.9-1l-0.6-1.2
		c-0.1-0.2-0.2-0.3-0.3-0.4c-0.1,0-0.3,0-0.5,0.1l-0.1-0.1l1.7-0.9l0.1,0.1c-0.2,0.1-0.3,0.3-0.4,0.4s0,0.3,0.1,0.5l1.5,2.7
		c0.1,0.2,0.2,0.3,0.3,0.4c0.1,0,0.3,0,0.5-0.1l0.1,0.1l-1.7,0.9l-0.1-0.1c0.2-0.2,0.4-0.3,0.4-0.4c0-0.1,0-0.3-0.2-0.5l-0.6-1.2
		l-1.9,1l0.7,1.3c0.1,0.2,0.2,0.3,0.3,0.4c0.1,0,0.3,0,0.5-0.1l0.1,0.1l-1.7,0.9L169.9,180.4z"/>
	<path class="st0" d="M173.3,174.1c0.2-0.6,0.6-1,1.2-1.2c0.6-0.3,1.1-0.3,1.7-0.1c0.6,0.2,1.1,0.6,1.4,1.3c0.3,0.7,0.4,1.3,0.1,1.9
		c-0.2,0.5-0.6,1-1.2,1.2c-0.6,0.3-1.2,0.3-1.8,0.1c-0.6-0.2-1-0.7-1.3-1.3C173.1,175.4,173,174.7,173.3,174.1z M175.2,177
		c0.4,0.2,0.8,0.2,1.2,0c0.4-0.2,0.6-0.5,0.7-0.9c0.1-0.4,0-1-0.3-1.7c-0.3-0.7-0.7-1.1-1.1-1.3c-0.4-0.2-0.8-0.2-1.2,0
		c-0.4,0.2-0.6,0.5-0.7,0.9s0,1,0.3,1.7C174.4,176.4,174.8,176.8,175.2,177z"/>
	<path class="st0" d="M178.7,176c0.2-0.1,0.4-0.2,0.4-0.3c0-0.1,0-0.3-0.1-0.6l-1.1-2.8c-0.1-0.2-0.2-0.4-0.3-0.4
		c-0.1,0-0.3,0-0.5,0l0-0.1l1.8-0.7c0.4-0.1,0.7-0.2,1-0.2c0.5,0,0.9,0.2,1.1,0.7c0.1,0.3,0.1,0.6,0,0.9c-0.1,0.3-0.4,0.5-0.7,0.7
		l2,1.1c0.1,0.1,0.2,0.1,0.3,0.1c0.1,0,0.2,0,0.4,0l0,0.1l-1.1,0.4l-2.4-1.4l-0.3,0.1l0.5,1.3c0.1,0.2,0.2,0.4,0.3,0.4
		c0.1,0,0.3,0,0.5-0.1l0,0.1l-1.8,0.7L178.7,176z M180.1,172.8c0.3-0.3,0.4-0.6,0.2-1c-0.1-0.4-0.4-0.6-0.8-0.6
		c-0.2,0-0.4,0-0.7,0.1c-0.2,0.1-0.3,0.1-0.3,0.2s0,0.1,0,0.2l0.6,1.6C179.6,173.2,179.9,173,180.1,172.8z"/>
	<path class="st0" d="M183,174.3c0.2-0.1,0.4-0.2,0.4-0.3s0-0.3,0-0.5l-0.8-3c-0.1-0.2-0.1-0.4-0.2-0.4c-0.1-0.1-0.3-0.1-0.5,0
		l0-0.1l1.9-0.5l0,0.1c-0.2,0.1-0.4,0.2-0.5,0.3c-0.1,0.1-0.1,0.2,0,0.5l0.9,3.2c0,0.1,0.1,0.1,0.1,0.2c0,0,0.1,0,0.2,0
		c0.1,0,0.1,0,0.2,0c0.1,0,0.2,0,0.3-0.1c0.6-0.2,1-0.3,1.2-0.5c0.2-0.2,0.3-0.5,0.4-0.9l0.2,0l0,1.3l-3.6,1L183,174.3z"/>
	<path class="st0" d="M187,173.2c0.2-0.1,0.4-0.1,0.5-0.2c0.1-0.1,0.1-0.2,0-0.5l-0.5-3.1c0-0.2-0.1-0.4-0.2-0.5
		c-0.1-0.1-0.3-0.1-0.5-0.1l0-0.1l3.7-0.7l0.2,1l-0.2,0c-0.1-0.3-0.2-0.5-0.4-0.5c-0.1-0.1-0.4-0.1-0.8,0l-0.9,0.2
		c-0.1,0-0.2,0-0.2,0.1c0,0,0,0.1,0,0.2l0.3,1.5l1.1-0.2c0.3-0.1,0.5-0.1,0.5-0.2c0.1-0.1,0.1-0.3,0.1-0.6l0.2,0l0.3,1.6l-0.2,0
		c-0.1-0.3-0.2-0.4-0.3-0.5s-0.3-0.1-0.6,0l-1.1,0.2l0.3,1.7c0,0.1,0.1,0.2,0.2,0.2s0.4,0,0.8-0.1c0.5-0.1,0.8-0.2,1-0.3
		s0.4-0.4,0.5-0.8l0.2,0l-0.1,1.2l-3.7,0.7L187,173.2z"/>
	<path class="st0" d="M192.8,167.8l0,0.1c-0.2,0-0.3,0-0.4,0.1c-0.1,0-0.1,0.1-0.1,0.2c0,0,0,0.1,0,0.1c0,0,0.1,0.1,0.1,0.2l1.1,1.4
		l0.9-1.6c0-0.1,0.1-0.1,0.1-0.2c0,0,0-0.1,0-0.1c0-0.1-0.1-0.2-0.2-0.2c-0.1,0-0.2,0-0.3,0l0-0.1l1.5-0.1l0,0.1
		c-0.1,0-0.3,0.1-0.4,0.2c-0.2,0.1-0.3,0.4-0.5,0.7l-0.9,1.7l0.1,1.4c0,0.3,0.1,0.4,0.2,0.5c0.1,0.1,0.3,0.1,0.6,0.1l0,0.1l-2.1,0.2
		l0-0.1c0.3,0,0.5-0.1,0.6-0.2c0.1-0.1,0.1-0.3,0.1-0.6l-0.1-1.2l-1-1.3c-0.4-0.4-0.6-0.7-0.7-0.8c-0.1-0.1-0.3-0.2-0.5-0.2l0-0.1
		L192.8,167.8z"/>
</g>
<g>
	<path class="st0" d="M290.4,172.1c0.3,0,0.4,0,0.5-0.1c0.1-0.1,0.1-0.2,0.1-0.5l0.2-3.1c0-0.2,0-0.4-0.1-0.5
		c-0.1-0.1-0.2-0.1-0.5-0.2l0-0.1l2,0.1l0,0.1c-0.3,0-0.4,0-0.5,0.1c-0.1,0.1-0.1,0.2-0.2,0.4l-0.2,3.4c0,0.1,0,0.1,0,0.2
		c0,0,0.1,0.1,0.2,0.1c0.1,0,0.1,0,0.2,0c0.1,0,0.2,0,0.3,0c0.6,0,1,0,1.3-0.1c0.2-0.1,0.5-0.3,0.7-0.7l0.2,0l-0.4,1.2l-3.8-0.3
		L290.4,172.1z"/>
	<path class="st0" d="M294.6,172.5l0-0.1c0.2,0,0.3,0,0.4-0.1c0.1-0.1,0.3-0.4,0.6-0.9l2-3.1l0.1,0l1.1,4.2c0.1,0.3,0.1,0.5,0.2,0.5
		c0.1,0.1,0.2,0.1,0.3,0.2l0,0.1l-1.8-0.3l0-0.1c0.2,0,0.3,0,0.4,0c0.1,0,0.1-0.1,0.1-0.2c0,0,0-0.1,0-0.2s0-0.2,0-0.3l-0.2-0.7
		l-1.8-0.3c-0.3,0.4-0.4,0.7-0.5,0.8c-0.1,0.1-0.1,0.2-0.1,0.2c0,0.1,0,0.2,0.1,0.3c0.1,0,0.2,0.1,0.3,0.1l0,0.1L294.6,172.5z
		 M297.9,171.2l-0.5-2l-1.1,1.8L297.9,171.2z"/>
	<path class="st0" d="M299.4,173.2c0.3,0.1,0.5,0,0.6,0s0.2-0.3,0.3-0.6l0.9-3l-0.1-0.1c-0.1-0.1-0.1-0.2-0.2-0.3
		c-0.1,0-0.2-0.1-0.3-0.1l0-0.1l1.1,0.3l1.6,4l0.7-2.2c0.1-0.4,0.1-0.6,0-0.8c-0.1-0.1-0.2-0.2-0.4-0.3l0-0.1l1.6,0.5l0,0.1
		c-0.3,0-0.5,0-0.6,0c-0.1,0.1-0.2,0.3-0.3,0.6l-1,3.5l-0.1,0l-1.9-4.6l-0.8,2.6c-0.1,0.4-0.1,0.6-0.1,0.8c0,0.1,0.2,0.2,0.4,0.3
		l0,0.1l-1.6-0.5L299.4,173.2z"/>
	<path class="st0" d="M308.9,171.7c0.2,0.2,0.3,0.3,0.4,0.3c0.1,0,0.1,0,0.2,0c0.1,0,0.1,0,0.2-0.1l0.1,0.1l-0.5,1.5l-0.1-0.1
		c0-0.3,0-0.6-0.1-0.8c-0.1-0.4-0.4-0.8-0.9-0.9c-0.5-0.2-0.9-0.2-1.3,0.1c-0.4,0.2-0.8,0.7-1,1.3c-0.2,0.6-0.3,1.1-0.1,1.6
		s0.5,0.8,0.9,1c0.3,0.1,0.7,0.2,1,0.1c0.2,0,0.4-0.1,0.7-0.2l0.1,0.2c-0.2,0.1-0.5,0.2-0.7,0.3c-0.5,0.1-0.9,0-1.3-0.1
		c-0.7-0.3-1.2-0.7-1.4-1.3c-0.2-0.6-0.2-1.2,0.1-1.8c0.3-0.6,0.7-1.1,1.2-1.3c0.6-0.3,1.2-0.3,1.9,0
		C308.4,171.4,308.7,171.5,308.9,171.7z"/>
	<path class="st0" d="M308.4,176.5l0.1-0.1c0.2,0.1,0.3,0.1,0.5,0s0.4-0.3,0.8-0.7l2.8-2.5l0.1,0.1l-0.2,4.3c0,0.3,0,0.5,0,0.6
		c0,0.1,0.1,0.2,0.3,0.3l-0.1,0.1l-1.6-0.8l0.1-0.1c0.2,0.1,0.3,0.1,0.4,0.1s0.1,0,0.2-0.1c0,0,0-0.1,0-0.2s0-0.2,0-0.3l0-0.7
		l-1.7-0.8c-0.4,0.3-0.6,0.5-0.7,0.6c-0.1,0.1-0.1,0.1-0.2,0.2c-0.1,0.1,0,0.2,0,0.3c0,0.1,0.1,0.1,0.3,0.2l-0.1,0.1L308.4,176.5z
		 M311.9,176.2l0.1-2.1l-1.6,1.4L311.9,176.2z"/>
	<path class="st0" d="M313.9,177.6c0,0.3,0,0.6,0,0.9c0.1,0.4,0.3,0.7,0.7,0.9c0.2,0.1,0.4,0.1,0.6,0.1c0.2,0,0.4-0.2,0.5-0.4
		c0.1-0.2,0.1-0.4,0.1-0.6c0-0.1-0.2-0.4-0.4-0.7l-0.3-0.6c-0.1-0.2-0.2-0.4-0.2-0.5c-0.1-0.3,0-0.5,0.1-0.8
		c0.2-0.3,0.4-0.5,0.7-0.6c0.3-0.1,0.6,0,1,0.1c0.1,0.1,0.3,0.2,0.5,0.4c0.2,0.2,0.3,0.3,0.3,0.3c0.1,0,0.1,0.1,0.2,0
		s0.1-0.1,0.2-0.1l0.1,0.1l-0.6,1.4l-0.1-0.1c0.1-0.4,0.1-0.8,0-1.1s-0.3-0.5-0.5-0.6c-0.2-0.1-0.3-0.1-0.5-0.1
		c-0.2,0-0.3,0.1-0.4,0.3c-0.1,0.2-0.1,0.3-0.1,0.5c0,0.2,0.1,0.4,0.3,0.6l0.4,0.6c0.2,0.4,0.4,0.7,0.4,1c0,0.3,0,0.5-0.1,0.7
		c-0.2,0.3-0.4,0.5-0.8,0.6c-0.4,0.1-0.7,0-1.1-0.2c-0.2-0.1-0.4-0.2-0.5-0.4c-0.2-0.2-0.3-0.3-0.3-0.3c-0.1,0-0.1,0-0.2,0
		c0,0-0.1,0.1-0.1,0.1l-0.1-0.1l0.5-1.4L313.9,177.6z"/>
	<path class="st0" d="M316.4,180.4c0.2,0.1,0.4,0.2,0.5,0.1c0.1,0,0.2-0.2,0.4-0.4l1.6-2.6c0.1-0.2,0.2-0.4,0.2-0.5
		s-0.1-0.2-0.4-0.4l0.1-0.1l1.7,1l-0.1,0.1c-0.2-0.1-0.4-0.2-0.5-0.1c-0.1,0-0.2,0.1-0.3,0.4l-0.7,1.2l1.8,1.1l0.7-1.2
		c0.1-0.2,0.2-0.4,0.2-0.5c0-0.1-0.1-0.2-0.4-0.4l0.1-0.1l1.7,1l-0.1,0.1c-0.2-0.1-0.4-0.2-0.5-0.1c-0.1,0-0.2,0.1-0.3,0.4l-1.6,2.7
		c-0.1,0.2-0.2,0.4-0.2,0.5c0,0.1,0.1,0.2,0.4,0.4l-0.1,0.1l-1.7-1l0.1-0.1c0.3,0.1,0.4,0.2,0.5,0.1c0.1,0,0.2-0.2,0.4-0.4l0.7-1.2
		l-1.8-1.1l-0.7,1.2c-0.1,0.2-0.2,0.4-0.2,0.5c0,0.1,0.1,0.2,0.4,0.4l-0.1,0.1l-1.7-1L316.4,180.4z"/>
	<path class="st0" d="M320.6,183c0.3,0.1,0.4,0.2,0.5,0.2s0.2-0.1,0.4-0.4l1.7-2.6c0.1-0.2,0.2-0.4,0.2-0.5c0-0.1-0.2-0.2-0.4-0.4
		l0.1-0.1l1.7,1.1l-0.1,0.1c-0.2-0.1-0.4-0.2-0.5-0.2c-0.1,0-0.2,0.1-0.4,0.4l-1.7,2.6c-0.1,0.2-0.2,0.4-0.2,0.5
		c0,0.1,0.2,0.2,0.4,0.4l-0.1,0.1l-1.7-1.1L320.6,183z"/>
	<path class="st0" d="M322.6,184.2c0.2,0.1,0.4,0.2,0.5,0.2c0.1,0,0.2-0.2,0.4-0.4l1.7-2.5c0.1-0.2,0.2-0.4,0.2-0.5
		c0-0.1-0.1-0.2-0.3-0.4l0.1-0.1l1.6,1.1c0.3,0.2,0.6,0.5,0.7,0.7c0.3,0.4,0.3,0.9,0,1.3c-0.2,0.3-0.4,0.4-0.7,0.5
		c-0.3,0-0.6,0-1-0.2l0.2,2.3c0,0.1,0,0.3,0.1,0.3c0,0.1,0.1,0.2,0.2,0.3l-0.1,0.1l-0.9-0.6l-0.2-2.8l-0.3-0.2l-0.8,1.1
		c-0.1,0.2-0.2,0.4-0.2,0.5c0,0.1,0.1,0.2,0.3,0.4l-0.1,0.1l-1.6-1.1L322.6,184.2z M325.9,183.5c0.4,0.1,0.7,0,0.9-0.4
		c0.2-0.3,0.2-0.7,0.1-1c-0.1-0.2-0.3-0.3-0.5-0.5c-0.2-0.1-0.3-0.2-0.3-0.2c-0.1,0-0.1,0-0.2,0.1l-1,1.4
		C325.4,183.3,325.7,183.5,325.9,183.5z"/>
	<path class="st0" d="M326.4,186.8c0.2,0.1,0.4,0.2,0.5,0.2s0.2-0.1,0.4-0.3l1.8-2.5c0.1-0.2,0.2-0.4,0.2-0.5c0-0.1-0.1-0.2-0.3-0.4
		l0.1-0.1l3,2.2l-0.6,0.8l-0.1-0.1c0.1-0.3,0.2-0.5,0.1-0.6c0-0.1-0.2-0.3-0.6-0.6l-0.8-0.6c-0.1-0.1-0.1-0.1-0.2-0.1
		c0,0-0.1,0.1-0.1,0.1l-0.9,1.3l0.9,0.6c0.2,0.2,0.4,0.3,0.5,0.2c0.1,0,0.3-0.1,0.5-0.3l0.1,0.1l-1,1.3l-0.1-0.1
		c0.1-0.2,0.2-0.4,0.2-0.6c0-0.1-0.1-0.3-0.4-0.4l-0.9-0.6l-1,1.4c-0.1,0.1-0.1,0.2,0,0.3c0.1,0.1,0.3,0.2,0.6,0.5
		c0.4,0.3,0.7,0.4,0.9,0.5c0.2,0.1,0.6,0,0.9-0.2l0.2,0.1l-1,0.8l-3-2.2L326.4,186.8z"/>
</g>
<path class="st0" d="M243.2,263.7c7.3-5,14.9-11.3,17.4-23.7c0,0-19-20.2-8.8-26c5-2.9,12.7,8,10.7,25c0,0,7.7,9.7,23,9.7
	c15.3,0,32-13.7,32-29.5s-10.7-25.7-22.3-25.7c-10,0-12.5,7.7-12.5,7.7c3-9.2,11.7-9.2,12.7-9.2c1.2,0,24.7,0.2,24.7,27
	c0,0,1.2,31.5-34.6,31.5c-11,0-19.8-6.2-23.2-9.3c0,0-2.9,15.9-18.9,25.5c-16-9.6-18.9-25.5-18.9-25.5c-3.3,3.2-12.1,9.3-23.2,9.3
	c-35.8,0-34.6-31.5-34.6-31.5c0-26.8,23.5-27,24.7-27c1,0,9.7,0,12.7,9.2c0,0-2.5-7.7-12.5-7.7c-11.7,0-22.3,9.8-22.3,25.7
	s16.7,29.5,32,29.5s23-9.7,23-9.7c-2-17,5.7-27.9,10.7-25c10.2,5.8-8.8,26-8.8,26C228.3,252.4,235.8,258.7,243.2,263.7z M225.1,238
	c5.5-5.8,14.4-18.4,9.1-22.2C229.5,212.3,224,227.5,225.1,238z M252.1,215.8c-5.3,3.9,3.6,16.5,9.1,22.2
	C262.3,227.5,256.8,212.3,252.1,215.8z"/>
<path class="st0" d="M439,174.2c0,3.1,2.9,4.2,2.9,4.2s1.5,0.6,0.9,1.5c-0.6,1-1.6,0.3-1.6,0.3s-2.8-1.7-2.8-6.1
	c0-4.4,5.6-11.5,5.6-11.5c-8.4-4.1-14.3-2.8-19.4-1.5c0.1,1.8-3.9,8.3-6,5.7c-2.4-2.8,5-6.4,5-6.4c-2-6.2-5.5-7.4-11-7.4
	c-10.9,0-17.2,4.8-24.1,8.4s-16.9,7.5-25.1,7.5s-20.2-1.8-35.6-17.4c11.5,11.1,22.4,14.8,35.8,14.8c0,0,7.6,0.9,23.4-6.6
	s19-7.5,25.7-7.5c6.9,0,10,1.4,12,7.9c0,0,9.9-4.5,20.3,0.8l0.1-0.1c4.4-6.7,11.6-10.4,21.1-10.4s17.4,2.6,17.4,10
	c-0.1,7.2-6.8,9.7-16.9,9.7c-10.6,0-13.9-3.1-22.1-7.1C441.9,166.4,439,171.2,439,174.2z M445.6,161.3c9.8,5.1,12.3,7.9,21.1,7.9
	c0,0,15.9,0.9,15.9-8.8s-16.4-9.1-16.4-9.1s-13.4,0.2-20.1,9.3L445.6,161.3z M423,161.9c-2.1,0.9-4.4,3.2-3.6,4.2
	C420.5,166.8,422.6,163.8,423,161.9z"/>
<path class="st0" d="M243.2,238.8c0,0,4.5-5.2,3.1-12.2c2.4,6.8,0.8,11-3.1,15.6c-3.9-4.6-5.5-8.8-3.1-15.6
	C238.7,233.7,243.2,238.8,243.2,238.8z"/>
<path class="st0" d="M38.9,163c-8.2,4.1-11.4,7.1-22.1,7.1c-10.1,0-16.8-2.5-16.9-9.7c-0.1-7.4,7.8-10,17.4-10s16.7,3.7,21.1,10.4
	l0.1,0.1c10.4-5.3,20.3-0.8,20.3-0.8c2.1-6.5,5.2-7.9,12-7.9c6.8,0,10,0,25.7,7.5s23.4,6.6,23.4,6.6c13.4,0,24.2-3.6,35.7-14.8
	c-15.4,15.6-27.4,17.4-35.6,17.4s-18.2-3.9-25.1-7.5S81.9,153,71,153c-5.5,0-9,1.1-11,7.4c0,0,7.4,3.6,5,6.4c-2.2,2.6-6.1-3.9-6-5.7
	c-5.2-1.3-11-2.5-19.4,1.5c0,0,5.6,7.1,5.6,11.5c0,4.4-2.8,6.1-2.8,6.1s-1,0.7-1.6-0.3s0.9-1.5,0.9-1.5s2.9-1.1,2.9-4.2
	C44.5,171.2,41.6,166.4,38.9,163z M37.5,160.6c-6.8-9.2-20.1-9.3-20.1-9.3S1,150.7,1,160.4s15.9,8.8,15.9,8.8
	c8.8,0,11.2-2.8,21.1-7.9L37.5,160.6z M64,166.1c0.8-0.9-1.5-3.2-3.6-4.2C60.9,163.8,62.9,166.8,64,166.1z"/>
<path class="st0" d="M272.8,135.3c0,11-10.4,27.8-30.1,27.8c-6.5,0-11.4-0.5-15.2-2.7c-6.9-4-9.7-11.1-10.6-12.6
	c-1.3-2.2-6.9-14.7-15.9-14.7h-2.5v18.7c0,4.3,3.5,7.8,7.8,7.8v1.4h-24.6v-1.4c4.3,0,7.8-3.5,7.8-7.8v-38.9c0-4.3-3.5-7.8-7.8-7.8
	v-1.1l26.4,0.3c10.1,0,18.2,6.4,18.2,14.3c0,6.4-5.4,11.8-12.8,13.6c3.4,0.9,7.4,7.5,7.4,7.5l8.3,12.2c4.5,6,7.6,8.6,13.6,8.6
	c13.1,0,21.2-16.7,21.2-25.2v-21.8c0-4.3-3.5-7.8-7.8-7.8v-1.4h24.4v1.4c-4.3,0-7.8,3.5-7.8,7.8L272.8,135.3z M205,131.9
	c5.9,0,10.8-5.9,10.8-13.1c0-7.2-4.8-13.1-10.8-13.1l-6.5,0v26.2L205,131.9z"/>
<path class="st0" d="M228.6,148l-5.4-8c5.1-5.8,7.8-7.3,12.7-10c0,0-7.2-7.9-7.2-14.2c0-6.4,4.9-11.3,13.7-11.3s14.9,3.6,14.9,9.9
	s-6.5,10.1-13,13.2l14.7,16.8c-0.5,1.3-2.2,4.6-3.9,7.1l-17.9-20.4C231.2,134.1,227.8,140.8,228.6,148z M243.3,126.6
	c4.4-3.3,7.4-6.2,7.4-12.1s-3.6-8.7-8.9-8.7s-7.8,3-7.8,6.4C234,116.8,240.7,123.6,243.3,126.6z"/>
<g>
	<path class="st0" d="M231.4,184.2c0.4,0,0.7-0.1,0.9-0.2c0.1-0.1,0.2-0.4,0.2-0.8v-5.3c0-0.4-0.1-0.7-0.2-0.8s-0.4-0.2-0.9-0.2
		v-0.2h3.2c1.1,0,2,0.2,2.8,0.5c1.4,0.6,2,1.8,2,3.5c0,0.6-0.1,1.2-0.4,1.7s-0.6,1-1.1,1.4c-0.3,0.2-0.6,0.4-1,0.5
		c-0.6,0.2-1.4,0.3-2.3,0.3h-3.3V184.2z M233.8,183.9c0.1,0.1,0.3,0.1,0.6,0.1c0.9,0,1.7-0.2,2.3-0.6c0.9-0.6,1.4-1.5,1.4-2.9
		c0-1.2-0.4-2.2-1.1-2.8c-0.7-0.5-1.5-0.8-2.6-0.8c-0.3,0-0.5,0-0.5,0.1s-0.1,0.2-0.1,0.4v6.1C233.7,183.7,233.7,183.8,233.8,183.9z
		"/>
	<path class="st0" d="M240,184.2c0.4,0,0.7-0.1,0.9-0.2c0.1-0.1,0.2-0.4,0.2-0.8v-5.3c0-0.4-0.1-0.7-0.2-0.8s-0.4-0.2-0.9-0.2v-0.2
		h6.4l0,1.7h-0.3c-0.1-0.5-0.3-0.9-0.5-1s-0.7-0.2-1.4-0.2h-1.6c-0.2,0-0.3,0-0.3,0.1c0,0.1-0.1,0.2-0.1,0.3v2.7h1.9
		c0.5,0,0.8-0.1,1-0.2s0.3-0.5,0.3-0.9h0.3v2.8h-0.3c-0.1-0.5-0.2-0.8-0.3-0.9s-0.5-0.2-1-0.2h-1.9v3c0,0.2,0.1,0.4,0.2,0.4
		c0.2,0,0.6,0.1,1.4,0.1c0.8,0,1.4-0.1,1.8-0.3s0.7-0.6,1-1.3h0.3l-0.5,2H240V184.2z"/>
	<path class="st0" d="M253,176.6c0.5,0.1,0.7,0.2,0.8,0.2c0.1,0,0.2,0,0.3-0.1s0.2-0.2,0.2-0.3h0.3l0.1,2.7h-0.3
		c-0.2-0.5-0.4-1-0.6-1.3c-0.5-0.6-1.2-0.9-2-0.9c-0.8,0-1.5,0.3-2.1,1s-0.8,1.6-0.8,2.7c0,1.1,0.3,1.9,0.8,2.6s1.3,1,2.1,1
		c0.6,0,1.2-0.1,1.7-0.4c0.3-0.2,0.6-0.4,1-0.8l0.2,0.2c-0.3,0.3-0.6,0.6-1,0.9c-0.7,0.4-1.4,0.6-2.2,0.6c-1.3,0-2.3-0.4-3.1-1.2
		c-0.7-0.8-1-1.7-1-2.9c0-1.2,0.4-2.1,1.1-2.9c0.8-0.8,1.8-1.2,3-1.2C252.1,176.4,252.5,176.4,253,176.6z"/>
	<path class="st0" d="M240.6,195.3c1.4-1.5,2.4-2.6,2.9-3.3c0.5-0.7,0.8-1.4,0.8-2c0-0.6-0.2-1-0.5-1.3c-0.3-0.3-0.7-0.5-1.1-0.5
		c-0.5,0-1,0.2-1.3,0.6c-0.2,0.2-0.4,0.5-0.5,1l-0.3-0.1c0.2-0.9,0.5-1.5,1-1.9c0.5-0.3,1-0.5,1.5-0.5c0.7,0,1.2,0.2,1.6,0.6
		c0.4,0.4,0.6,0.9,0.6,1.5c0,0.6-0.2,1.3-0.7,1.9c-0.4,0.6-1.4,1.6-2.9,3.2h2.7c0.4,0,0.6,0,0.8-0.1c0.2-0.1,0.3-0.3,0.5-0.7
		l0.2,0.1l-0.7,1.6h-4.7V195.3z"/>
	<path class="st0" d="M231.6,206.3c1.4-1.5,2.4-2.6,2.9-3.3c0.5-0.7,0.8-1.4,0.8-2c0-0.6-0.2-1-0.5-1.3c-0.3-0.3-0.7-0.5-1.1-0.5
		c-0.5,0-1,0.2-1.3,0.6c-0.2,0.2-0.4,0.5-0.5,1l-0.3-0.1c0.2-0.9,0.5-1.5,1-1.9c0.5-0.3,1-0.5,1.5-0.5c0.7,0,1.2,0.2,1.6,0.6
		c0.4,0.4,0.6,0.9,0.6,1.5c0,0.6-0.2,1.3-0.7,1.9c-0.4,0.6-1.4,1.6-2.9,3.2h2.7c0.4,0,0.6,0,0.8-0.1c0.2-0.1,0.3-0.3,0.5-0.7
		l0.2,0.1l-0.7,1.6h-4.7V206.3z"/>
	<path class="st0" d="M242.2,199.8c0.4,0.8,0.6,1.6,0.6,2.6c0,0.8-0.1,1.5-0.4,2.2c-0.5,1.3-1.2,1.9-2.4,1.9c-0.8,0-1.4-0.3-1.9-1
		c-0.5-0.7-0.8-1.8-0.8-3c0-1,0.2-1.9,0.5-2.6c0.5-1,1.2-1.5,2.2-1.5C241,198.4,241.7,198.8,242.2,199.8z M241.3,205.3
		c0.2-0.6,0.3-1.5,0.3-2.7c0-0.9-0.1-1.7-0.2-2.3c-0.2-1.1-0.7-1.6-1.4-1.6s-1.1,0.5-1.4,1.6c-0.1,0.6-0.2,1.3-0.2,2.3
		c0,0.9,0.1,1.6,0.2,2.1c0.2,1,0.7,1.5,1.4,1.5C240.7,206.2,241.1,205.9,241.3,205.3z"/>
	<path class="st0" d="M246.8,198.4C246.8,198.4,246.8,198.5,246.8,198.4l0,7.1c0,0.3,0.1,0.5,0.2,0.6c0.2,0.1,0.5,0.1,0.9,0.1v0.2
		h-3.3v-0.2c0.5,0,0.8-0.1,0.9-0.2s0.2-0.3,0.2-0.7V200c0-0.2,0-0.3-0.1-0.4s-0.1-0.1-0.3-0.1c-0.1,0-0.2,0-0.4,0.1
		s-0.3,0.1-0.5,0.2v-0.2L246.8,198.4L246.8,198.4C246.8,198.4,246.8,198.4,246.8,198.4z"/>
	<path class="st0" d="M254.6,198.5v0.2l-2.5,7.9h-0.8l2.4-7.2h-2.6c-0.4,0-0.7,0.1-0.8,0.2s-0.4,0.4-0.6,0.8l-0.2-0.1
		c0.3-0.6,0.4-1,0.5-1.2s0.1-0.3,0.2-0.6H254.6z"/>
</g>
<g>
	<path class="st0" d="M126.1,138.4c0.6-0.1,1-0.2,1.1-0.4c0.2-0.2,0.2-0.6,0.2-1.3v-6.9c0-0.6-0.1-0.9-0.3-1.1
		c-0.2-0.2-0.5-0.3-1.1-0.3v-0.3h4.4c0.9,0,1.7,0.1,2.3,0.4c1.2,0.4,1.8,1.3,1.8,2.4c0,0.8-0.3,1.4-0.8,1.8
		c-0.5,0.4-1.2,0.7-2.1,0.8l3.3,4.1c0.2,0.2,0.4,0.4,0.6,0.5s0.5,0.2,0.8,0.2v0.3h-2.6l-4-4.9l-0.7,0v3.2c0,0.6,0.1,1,0.3,1.1
		s0.6,0.3,1.2,0.3v0.3h-4.4V138.4z M131.6,132.9c0.8-0.3,1.3-1,1.3-2c0-0.9-0.4-1.6-1.1-1.9c-0.4-0.2-0.9-0.3-1.6-0.3
		c-0.5,0-0.7,0-0.8,0.1c-0.1,0.1-0.2,0.2-0.2,0.5v3.9C130.3,133.2,131.1,133.1,131.6,132.9z"/>
	<path class="st0" d="M137.9,129.3c1-0.9,2.2-1.4,3.6-1.4c1.4,0,2.7,0.5,3.6,1.4c1.1,1,1.6,2.4,1.6,4.1c0,1.7-0.6,3.1-1.7,4.1
		c-1,0.9-2.2,1.4-3.6,1.4c-1.5,0-2.7-0.5-3.7-1.5c-1-1-1.5-2.4-1.5-4C136.3,131.7,136.8,130.3,137.9,129.3z M139.1,137.1
		c0.7,0.8,1.5,1.2,2.4,1.2c0.9,0,1.8-0.4,2.4-1.2c0.7-0.8,1-2,1-3.8c0-1.7-0.3-3-1-3.8c-0.7-0.8-1.5-1.2-2.4-1.2
		c-1,0-1.8,0.4-2.4,1.2c-0.7,0.8-1,2.1-1,3.7C138.1,135.1,138.4,136.3,139.1,137.1z"/>
	<path class="st0" d="M146.8,138.4c0.6,0,1.1-0.1,1.2-0.3s0.3-0.5,0.3-1.1v-7.1c0-0.6-0.1-1-0.3-1.1s-0.6-0.3-1.2-0.3v-0.3h4.5
		c1.3,0,2.3,0.2,3,0.6c0.8,0.4,1.1,1.1,1.1,2.1c0,0.8-0.3,1.3-0.8,1.7c-0.3,0.2-0.7,0.4-1.3,0.6c0.7,0.2,1.4,0.5,1.9,0.9
		c0.5,0.4,0.8,1,0.8,1.7c0,1.2-0.6,2.1-1.7,2.6c-0.6,0.2-1.4,0.4-2.2,0.4h-5.2V138.4z M152.8,132.6c0.7-0.3,1-0.9,1-1.7
		c0-1-0.4-1.6-1.2-1.9c-0.4-0.2-1.1-0.3-2-0.3c-0.3,0-0.5,0-0.6,0.1c-0.1,0.1-0.1,0.2-0.1,0.5v3.6l1.5,0
		C152,132.8,152.5,132.8,152.8,132.6z M153.4,137.6c0.6-0.3,0.8-0.9,0.8-1.8c0-0.9-0.3-1.5-1-1.8c-0.6-0.3-1.5-0.5-2.5-0.5
		c-0.2,0-0.4,0-0.5,0c-0.1,0-0.2,0-0.3,0v4c0,0.3,0.1,0.5,0.2,0.5s0.5,0.1,1.1,0.1C152.1,138.1,152.8,138,153.4,137.6z"/>
</g>
<g>
	<path class="st0" d="M325.7,138.4c0.6-0.1,1-0.2,1.1-0.3s0.3-0.5,0.3-1.1v-7.1c0-0.6-0.1-0.9-0.3-1.1s-0.6-0.3-1.1-0.3v-0.3h4.5
		v0.3c-0.6,0-1,0.1-1.2,0.3s-0.3,0.5-0.3,1v7.7c0,0.2,0,0.3,0.1,0.4c0.1,0.1,0.2,0.2,0.4,0.2c0.1,0,0.2,0,0.4,0s0.4,0,0.7,0
		c1.4,0,2.4-0.1,2.9-0.4c0.5-0.2,1-0.8,1.5-1.8h0.4l-0.8,2.8h-8.6V138.4z"/>
	<path class="st0" d="M334.7,138.7v-0.3c0.4,0,0.7-0.2,0.9-0.5c0.2-0.3,0.6-1,1.1-2.2l3.3-7.9h0.3l4,9.1c0.3,0.6,0.5,1,0.6,1.1
		c0.2,0.1,0.4,0.2,0.8,0.3v0.3h-4.1v-0.3c0.5,0,0.8-0.1,0.9-0.2c0.1-0.1,0.2-0.2,0.2-0.4c0-0.1,0-0.2-0.1-0.4s-0.1-0.4-0.2-0.6
		l-0.6-1.5h-4.2c-0.4,1-0.7,1.7-0.7,1.9s-0.1,0.4-0.1,0.5c0,0.3,0.1,0.5,0.3,0.6c0.1,0.1,0.4,0.1,0.8,0.1v0.3H334.7z M341.6,134.6
		l-1.8-4.4l-1.8,4.4H341.6z"/>
	<path class="st0" d="M350,128.1v0.3c-0.6,0-1,0.1-1.2,0.3c-0.2,0.2-0.3,0.5-0.3,1.1v5.1c0,0.8,0.1,1.5,0.3,2
		c0.4,0.9,1.2,1.3,2.4,1.3c1.3,0,2.2-0.4,2.6-1.3c0.2-0.5,0.4-1.2,0.4-2.3v-4.2c0-0.9-0.1-1.4-0.3-1.6c-0.2-0.2-0.6-0.4-1.2-0.4
		v-0.3h3.7v0.3c-0.6,0.1-1,0.2-1.2,0.4c-0.2,0.2-0.3,0.8-0.3,1.6v4.2c0,1.1-0.2,2-0.5,2.6c-0.6,1.1-1.8,1.7-3.6,1.7
		c-1.7,0-2.9-0.6-3.5-1.7c-0.3-0.6-0.5-1.4-0.5-2.4v-5c0-0.6-0.1-1-0.3-1.1s-0.6-0.3-1.2-0.3v-0.3H350z"/>
	<path class="st0" d="M356.2,138.4c0.6-0.1,1-0.2,1.1-0.4s0.2-0.6,0.2-1.3v-6.9c0-0.6-0.1-0.9-0.3-1.1s-0.5-0.3-1.1-0.3v-0.3h4.4
		c0.9,0,1.7,0.1,2.3,0.4c1.2,0.4,1.8,1.3,1.8,2.4c0,0.8-0.3,1.4-0.8,1.8s-1.2,0.7-2.1,0.8l3.3,4.1c0.2,0.2,0.4,0.4,0.6,0.5
		s0.5,0.2,0.8,0.2v0.3h-2.6l-4-4.9l-0.7,0v3.2c0,0.6,0.1,1,0.3,1.1s0.6,0.3,1.2,0.3v0.3h-4.4V138.4z M361.6,132.9
		c0.8-0.3,1.3-1,1.3-2c0-0.9-0.4-1.6-1.1-1.9c-0.4-0.2-0.9-0.3-1.6-0.3c-0.5,0-0.7,0-0.8,0.1c-0.1,0.1-0.2,0.2-0.2,0.5v3.9
		C360.3,133.2,361.1,133.1,361.6,132.9z"/>
	<path class="st0" d="M366.1,138.7v-0.3c0.4,0,0.7-0.2,0.9-0.5c0.2-0.3,0.6-1,1.1-2.2l3.3-7.9h0.3l4,9.1c0.3,0.6,0.5,1,0.6,1.1
		c0.2,0.1,0.4,0.2,0.8,0.3v0.3h-4.1v-0.3c0.5,0,0.8-0.1,0.9-0.2c0.1-0.1,0.2-0.2,0.2-0.4c0-0.1,0-0.2-0.1-0.4
		c-0.1-0.2-0.1-0.4-0.2-0.6l-0.6-1.5H369c-0.4,1-0.7,1.7-0.7,1.9c-0.1,0.2-0.1,0.4-0.1,0.5c0,0.3,0.1,0.5,0.3,0.6
		c0.1,0.1,0.4,0.1,0.8,0.1v0.3H366.1z M373,134.6l-1.8-4.4l-1.8,4.4H373z"/>
</g>
</svg>
